<?xml version="1.0" encoding="UTF-8"?>
<svg xmlns="http://www.w3.org/2000/svg" xmlns:xlink="http://www.w3.org/1999/xlink" width="30px" height="30px" viewBox="0 0 30 30" version="1.1">
<g id="surface1">
<path style=" stroke:none;fill-rule:nonzero;fill:rgb(100%,100%,100%);fill-opacity:1;" d="M 6.25 27.5 C 5.558594 27.5 5 26.941406 5 26.25 L 5 16.25 C 5 15.558594 5.558594 15 6.25 15 C 6.941406 15 7.5 15.558594 7.5 16.25 L 7.5 26.25 C 7.5 26.941406 6.941406 27.5 6.25 27.5 Z M 12.5 27.5 C 11.808594 27.5 11.25 26.941406 11.25 26.25 L 11.25 3.75 C 11.25 3.058594 11.808594 2.5 12.5 2.5 C 13.191406 2.5 13.75 3.058594 13.75 3.75 L 13.75 26.25 C 13.75 26.941406 13.191406 27.5 12.5 27.5 Z M 18.75 27.5 C 18.058594 27.5 17.5 26.941406 17.5 26.25 L 17.5 11.25 C 17.5 10.558594 18.058594 10 18.75 10 C 19.441406 10 20 10.558594 20 11.25 L 20 26.25 C 20 26.941406 19.441406 27.5 18.75 27.5 Z M 25 27.5 C 24.308594 27.5 23.75 26.941406 23.75 26.25 L 23.75 21.25 C 23.75 20.558594 24.308594 20 25 20 C 25.691406 20 26.25 20.558594 26.25 21.25 L 26.25 26.25 C 26.25 26.941406 25.691406 27.5 25 27.5 Z M 25 27.5 "/>
</g>
</svg>
